<svg xmlns="http://www.w3.org/2000/svg" version="1.1" xmlns:xlink="http://www.w3.org/1999/xlink" xmlns:svgjs="http://svgjs.dev/svgjs" viewBox="0 0 800 400"><path d="M36.055782318115234,36.95218276977539C67.3227130953471,97.85756202061972,165.17529624303182,343.87549556096394,208.16732788085938,372.2111511230469C251.15935951868693,400.5468066851298,246.8162398783366,192.9282684326172,272.70916748046875,192.9282684326172C298.6020950826009,192.9282684326172,321.873000386556,383.2848537953695,350.69720458984375,372.2111511230469C379.5214087931315,361.13744845072426,398.1533953857422,191.57469743092855,431.37451171875,131.97210693359375C464.5956280517578,72.36951643625895,479.6628487141927,63.66533039093018,533.5657348632812,44.123497009277344C587.4686210123698,24.58166362762451,722.550793762207,23.425290158589682,728.087646484375,24.402381896972656C733.624499206543,25.37947363535563,605.5702186584473,35.00845780690511,564.0438232421875,49.501983642578125C522.5174278259277,63.99550947825114,517.9038778177897,79.59311851501465,499.5019836425781,104.18325805664062C481.10008946736656,128.7733975982666,470.24002634684246,155.38495585123698,462.7489929199219,184.8605499267578C455.2579594930013,214.33614400227864,451.4272937011719,238.58712354024252,458.2669372558594,266.4342346191406C465.10658081054686,294.28134569803876,478.2510016377767,320.3969011433919,500.3984069824219,338.14739990234375C522.5458123270671,355.8978986612956,546.9581494649251,360.3978853861491,580.1792602539062,364.1434020996094C613.4003710428874,367.88891881306967,648.0916097005208,367.88444229125975,683.2669067382812,358.7649230957031C718.4422037760417,349.6454039001465,757.357040608724,322.0866427103678,773.8047485351562,313.9442138671875" fill="none" stroke-width="74" stroke="#6366f1" stroke-linecap="round" transform="matrix(0.7350918906249998,0,0,0.7350918906249998,107.26931053761496,52.85312713264673)"></path><defs><linearGradient id="SvgjsLinearGradient1000"><stop stop-color="#6366f1" offset="0"></stop><stop stop-color="hsl(316, 73%, 52%)" offset="1"></stop></linearGradient></defs></svg>